<svg width="20" height="20" viewBox="0 0 20 20" fill="none" xmlns="http://www.w3.org/2000/svg">
<path fill-rule="evenodd" clip-rule="evenodd" d="M8.92868 1.42863C4.78654 1.42863 1.42869 4.78648 1.42869 8.92862C1.42869 13.0708 4.78654 16.4286 8.92868 16.4286C10.998 16.4286 12.8701 15.5915 14.228 14.2357C15.5887 12.8772 16.4287 11.0015 16.4287 8.92862C16.4287 4.78648 13.0708 1.42863 8.92868 1.42863ZM0.00012207 8.92862C0.00012207 3.9972 3.99726 6.10352e-05 8.92868 6.10352e-05C13.8601 6.10352e-05 17.8572 3.9972 17.8572 8.92862C17.8572 11.1386 17.0537 13.1622 15.7237 14.7208L19.7901 18.78C20.0694 19.0586 20.0701 19.5114 19.7915 19.79C19.5129 20.0693 19.0601 20.07 18.7815 19.7915L14.713 15.7308C13.1551 17.0565 11.1351 17.8572 8.92868 17.8572C3.99726 17.8572 0.00012207 13.86 0.00012207 8.92862Z" fill="black"/>
</svg>
